<mxfile host="app.diagrams.net" modified="2022-10-12T07:33:09.686Z" agent="5.0 (Windows NT 10.0; Win64; x64) AppleWebKit/537.36 (KHTML, like Gecko) Chrome/106.0.0.0 Safari/537.36" etag="LGRYDXeHAVBaIW7niL5l" version="20.3.6" type="github">
  <diagram id="qWkgrGlX2zObTh2m041I" name="Seite-1">
    <mxGraphModel dx="1146" dy="1788" grid="1" gridSize="10" guides="1" tooltips="1" connect="1" arrows="1" fold="1" page="1" pageScale="1" pageWidth="827" pageHeight="1169" math="0" shadow="0">
      <root>
        <mxCell id="0" />
        <mxCell id="1" parent="0" />
        <mxCell id="QS3DV-66-uBrxZAoDPn1-2" value="&lt;b&gt;Subscriber &amp;amp; Publisher&lt;br&gt;&lt;/b&gt;Server(VM, Virtual Desktop)" style="html=1;" parent="1" vertex="1">
          <mxGeometry x="240" y="70" width="220" height="90" as="geometry" />
        </mxCell>
        <mxCell id="QS3DV-66-uBrxZAoDPn1-3" value="&lt;b&gt;&lt;a href=&quot;https://confluence.iavgroup.local/pages/viewpage.action?spaceKey=IAVWiki&amp;amp;title=IAV+MQTT+Broker&quot;&gt;IAV Broker&lt;/a&gt;&lt;/b&gt;" style="html=1;" parent="1" vertex="1">
          <mxGeometry x="290" y="220" width="140" height="60" as="geometry" />
        </mxCell>
        <mxCell id="QS3DV-66-uBrxZAoDPn1-4" value="&lt;b&gt;Publisher&lt;/b&gt;&lt;br&gt;Prüfstand" style="html=1;" parent="1" vertex="1">
          <mxGeometry x="540" y="210" width="150" height="80" as="geometry" />
        </mxCell>
        <mxCell id="QS3DV-66-uBrxZAoDPn1-6" value="" style="strokeWidth=2;html=1;shape=mxgraph.flowchart.annotation_2;align=left;labelPosition=right;pointerEvents=1;rotation=-180;" parent="1" vertex="1">
          <mxGeometry x="190" y="65" width="50" height="100" as="geometry" />
        </mxCell>
        <mxCell id="QS3DV-66-uBrxZAoDPn1-8" value="As Subscriber:&lt;br&gt;Receive notifications from Prüfstände." style="text;html=1;strokeColor=none;fillColor=none;align=center;verticalAlign=middle;whiteSpace=wrap;rounded=0;" parent="1" vertex="1">
          <mxGeometry x="60" y="50" width="130" height="40" as="geometry" />
        </mxCell>
        <mxCell id="QS3DV-66-uBrxZAoDPn1-9" value="Topic : test bench" style="text;html=1;strokeColor=none;fillColor=none;align=center;verticalAlign=middle;whiteSpace=wrap;rounded=0;" parent="1" vertex="1">
          <mxGeometry x="75" y="20" width="100" height="30" as="geometry" />
        </mxCell>
        <mxCell id="iRqAzL0BKCe6huFpABMZ-1" value="&lt;b&gt;Subscriber&lt;/b&gt;&lt;b&gt;&amp;amp; Publisher&lt;/b&gt;&lt;br&gt;User" style="html=1;" vertex="1" parent="1">
          <mxGeometry x="277.5" y="370" width="165" height="60" as="geometry" />
        </mxCell>
        <mxCell id="iRqAzL0BKCe6huFpABMZ-2" value="" style="endArrow=classic;html=1;rounded=0;" edge="1" parent="1">
          <mxGeometry width="50" height="50" relative="1" as="geometry">
            <mxPoint x="320" y="160" as="sourcePoint" />
            <mxPoint x="320" y="220" as="targetPoint" />
          </mxGeometry>
        </mxCell>
        <mxCell id="iRqAzL0BKCe6huFpABMZ-3" value="" style="endArrow=classic;html=1;rounded=0;exitX=0.201;exitY=1.033;exitDx=0;exitDy=0;exitPerimeter=0;" edge="1" parent="1" source="QS3DV-66-uBrxZAoDPn1-3">
          <mxGeometry width="50" height="50" relative="1" as="geometry">
            <mxPoint x="280" y="360" as="sourcePoint" />
            <mxPoint x="318" y="370" as="targetPoint" />
          </mxGeometry>
        </mxCell>
        <mxCell id="iRqAzL0BKCe6huFpABMZ-4" value="Server will sum up all received notification and store a backup file in SQL" style="text;html=1;strokeColor=none;fillColor=none;align=center;verticalAlign=middle;whiteSpace=wrap;rounded=0;" vertex="1" parent="1">
          <mxGeometry x="240" y="25" width="220" height="40" as="geometry" />
        </mxCell>
        <mxCell id="iRqAzL0BKCe6huFpABMZ-5" value="Topic : test bench info&lt;br&gt;As Publisher:&lt;br&gt;Publish the info to user." style="text;html=1;strokeColor=none;fillColor=none;align=center;verticalAlign=middle;whiteSpace=wrap;rounded=0;" vertex="1" parent="1">
          <mxGeometry x="30" y="105" width="175" height="120" as="geometry" />
        </mxCell>
        <mxCell id="iRqAzL0BKCe6huFpABMZ-6" value="" style="shape=curlyBracket;whiteSpace=wrap;html=1;rounded=1;size=0.5;" vertex="1" parent="1">
          <mxGeometry x="460" width="20" height="75" as="geometry" />
        </mxCell>
        <mxCell id="iRqAzL0BKCe6huFpABMZ-7" value="Use py script to read &amp;amp; write sql" style="text;html=1;strokeColor=none;fillColor=none;align=center;verticalAlign=middle;whiteSpace=wrap;rounded=0;" vertex="1" parent="1">
          <mxGeometry x="490" y="-10" width="120" height="20" as="geometry" />
        </mxCell>
        <mxCell id="iRqAzL0BKCe6huFpABMZ-8" value="" style="shape=curlyBracket;whiteSpace=wrap;html=1;rounded=1;" vertex="1" parent="1">
          <mxGeometry x="450" y="340" width="20" height="120" as="geometry" />
        </mxCell>
        <mxCell id="iRqAzL0BKCe6huFpABMZ-9" value="Locally, a session is stored under localdata/xil_anzeige.&amp;nbsp;&lt;br&gt;&lt;br&gt;When received information, compare the persistant session to the new session." style="text;html=1;strokeColor=none;fillColor=none;align=center;verticalAlign=middle;whiteSpace=wrap;rounded=0;" vertex="1" parent="1">
          <mxGeometry x="470" y="340" width="190" height="30" as="geometry" />
        </mxCell>
        <mxCell id="iRqAzL0BKCe6huFpABMZ-10" value="Topic : test bench info" style="text;html=1;strokeColor=none;fillColor=none;align=center;verticalAlign=middle;whiteSpace=wrap;rounded=0;" vertex="1" parent="1">
          <mxGeometry x="200" y="185" width="120" height="25" as="geometry" />
        </mxCell>
        <mxCell id="iRqAzL0BKCe6huFpABMZ-11" value="Topic : test bench info" style="text;html=1;strokeColor=none;fillColor=none;align=center;verticalAlign=middle;whiteSpace=wrap;rounded=0;" vertex="1" parent="1">
          <mxGeometry x="200" y="315" width="120" height="25" as="geometry" />
        </mxCell>
        <mxCell id="iRqAzL0BKCe6huFpABMZ-12" value="publish content : connect request, report problem." style="text;html=1;strokeColor=none;fillColor=none;align=center;verticalAlign=middle;whiteSpace=wrap;rounded=0;" vertex="1" parent="1">
          <mxGeometry x="480" y="430" width="150" height="50" as="geometry" />
        </mxCell>
        <mxCell id="iRqAzL0BKCe6huFpABMZ-13" value="" style="endArrow=classic;html=1;rounded=0;entryX=0.428;entryY=0.998;entryDx=0;entryDy=0;entryPerimeter=0;" edge="1" parent="1" target="QS3DV-66-uBrxZAoDPn1-3">
          <mxGeometry width="50" height="50" relative="1" as="geometry">
            <mxPoint x="350" y="370" as="sourcePoint" />
            <mxPoint x="350" y="290" as="targetPoint" />
            <Array as="points">
              <mxPoint x="350" y="310" />
            </Array>
          </mxGeometry>
        </mxCell>
        <mxCell id="iRqAzL0BKCe6huFpABMZ-14" value="Topic : connect request" style="text;html=1;strokeColor=none;fillColor=none;align=center;verticalAlign=middle;whiteSpace=wrap;rounded=0;" vertex="1" parent="1">
          <mxGeometry x="280" y="440" width="150" height="20" as="geometry" />
        </mxCell>
        <mxCell id="iRqAzL0BKCe6huFpABMZ-15" value="" style="endArrow=classic;html=1;rounded=0;entryX=0.5;entryY=1;entryDx=0;entryDy=0;" edge="1" parent="1" target="QS3DV-66-uBrxZAoDPn1-2">
          <mxGeometry width="50" height="50" relative="1" as="geometry">
            <mxPoint x="350" y="220" as="sourcePoint" />
            <mxPoint x="380" y="170" as="targetPoint" />
          </mxGeometry>
        </mxCell>
        <mxCell id="iRqAzL0BKCe6huFpABMZ-16" value="" style="endArrow=classic;html=1;rounded=0;entryX=0.75;entryY=1;entryDx=0;entryDy=0;exitX=0.702;exitY=0.004;exitDx=0;exitDy=0;exitPerimeter=0;" edge="1" parent="1" source="iRqAzL0BKCe6huFpABMZ-1" target="QS3DV-66-uBrxZAoDPn1-3">
          <mxGeometry width="50" height="50" relative="1" as="geometry">
            <mxPoint x="370" y="370" as="sourcePoint" />
            <mxPoint x="420" y="320" as="targetPoint" />
          </mxGeometry>
        </mxCell>
        <mxCell id="iRqAzL0BKCe6huFpABMZ-17" value="" style="endArrow=classic;html=1;rounded=0;entryX=0.678;entryY=0.991;entryDx=0;entryDy=0;entryPerimeter=0;exitX=0.703;exitY=-0.013;exitDx=0;exitDy=0;exitPerimeter=0;" edge="1" parent="1" source="QS3DV-66-uBrxZAoDPn1-3" target="QS3DV-66-uBrxZAoDPn1-2">
          <mxGeometry width="50" height="50" relative="1" as="geometry">
            <mxPoint x="370" y="220" as="sourcePoint" />
            <mxPoint x="420" y="170" as="targetPoint" />
          </mxGeometry>
        </mxCell>
        <mxCell id="iRqAzL0BKCe6huFpABMZ-18" value="Topic : report poblem" style="text;html=1;strokeColor=none;fillColor=none;align=center;verticalAlign=middle;whiteSpace=wrap;rounded=0;" vertex="1" parent="1">
          <mxGeometry x="275" y="460" width="150" height="20" as="geometry" />
        </mxCell>
        <mxCell id="iRqAzL0BKCe6huFpABMZ-19" value="SQL update base on topic problem" style="text;html=1;align=center;verticalAlign=middle;resizable=0;points=[];autosize=1;strokeColor=none;fillColor=none;" vertex="1" parent="1">
          <mxGeometry x="490" y="60" width="210" height="30" as="geometry" />
        </mxCell>
      </root>
    </mxGraphModel>
  </diagram>
</mxfile>
